<svg width="36" height="36" viewBox="0 0 36 36" fill="none" xmlns="http://www.w3.org/2000/svg">
<g clip-path="url(#clip0_95_34)">
<path d="M34.87 32.21L30 27.37V8.75L27.7 4.52C27.5304 4.1975 27.2758 3.92748 26.9639 3.73911C26.6519 3.55074 26.2944 3.45118 25.93 3.45118C25.5656 3.45118 25.2081 3.55074 24.8962 3.73911C24.5842 3.92748 24.3297 4.1975 24.16 4.52L22 8.76V19.41L3.71002 1.21C3.57015 1.06897 3.39145 0.972791 3.1967 0.933721C3.00195 0.894651 2.79998 0.914463 2.61654 0.990629C2.43309 1.0668 2.27649 1.19587 2.16668 1.36139C2.05688 1.52691 1.99886 1.72138 2.00002 1.92V10H4.17002V11.6H2.00002V18H4.17002V19.6H2.00002V26.25H4.17002V27.85H2.00002V32.92C2.00002 33.1852 2.10537 33.4396 2.29291 33.6271C2.48045 33.8146 2.7348 33.92 3.00002 33.92H34.16C34.3586 33.9212 34.5531 33.8631 34.7186 33.7533C34.8841 33.6435 35.0132 33.4869 35.0894 33.3035C35.1656 33.12 35.1854 32.9181 35.1463 32.7233C35.1072 32.5286 35.011 32.3499 34.87 32.21ZM10 26V16.94L19.07 26H10ZM28 28.11H24V25.68H28V28.11ZM28 24.11H24V9.25L25.94 5.48L28 9.26V24.11Z" fill="#9747FF"/>
</g>
<defs>
<clipPath id="clip0_95_34">
<rect width="36" height="36" fill="white"/>
</clipPath>
</defs>
</svg>
