<svg width="40" height="40" viewBox="0 0 40 40" fill="none" xmlns="http://www.w3.org/2000/svg">
<path d="M20 20C17.25 20 14.8958 19.0208 12.9375 17.0625C10.9792 15.1042 10 12.75 10 10C10 7.25 10.9792 4.89583 12.9375 2.9375C14.8958 0.979167 17.25 0 20 0C22.75 0 25.1042 0.979167 27.0625 2.9375C29.0208 4.89583 30 7.25 30 10C30 12.75 29.0208 15.1042 27.0625 17.0625C25.1042 19.0208 22.75 20 20 20ZM0 40V33C0 31.5833 0.365001 30.2808 1.095 29.0925C1.82333 27.9058 2.79167 27 4 26.375C6.58333 25.0833 9.20833 24.1142 11.875 23.4675C14.5417 22.8225 17.25 22.5 20 22.5C22.75 22.5 25.4583 22.8225 28.125 23.4675C30.7917 24.1142 33.4167 25.0833 36 26.375C37.2083 27 38.1767 27.9058 38.905 29.0925C39.635 30.2808 40 31.5833 40 33V40H0Z" fill="#9747FF"/>
</svg>
