<svg width="32" height="32" viewBox="0 0 32 32" fill="none" xmlns="http://www.w3.org/2000/svg">
<path d="M24.251 21.37L26.445 22.832C26.6577 22.9739 26.9167 23.0289 27.1687 22.9858C27.4207 22.9426 27.6466 22.8046 27.8 22.6L30.8 18.6L29.2 17.4L26.767 20.644L24.555 19.168C24.339 19.0237 24.0754 18.9691 23.8199 19.0158C23.5644 19.0625 23.337 19.2067 23.186 19.418L20 23.879V16H18V26C18.0005 26.5303 18.2114 27.0387 18.5864 27.4136C18.9613 27.7886 19.4697 27.9995 20 28H30V26H20.943L24.251 21.37ZM2 21H16V23H2V21ZM2 26H16V28H2V26ZM11 16V11H12C13.0605 10.9987 14.0771 10.5768 14.827 9.82697C15.5768 9.07711 15.9987 8.06046 16 7V4H13C11.976 4.00168 10.9921 4.39819 10.253 5.107C9.73517 4.16677 8.9747 3.38258 8.0508 2.83613C7.12691 2.28967 6.0734 2.00094 5 2H2V5C2.00185 6.59073 2.63459 8.11578 3.75941 9.24059C4.88422 10.3654 6.40927 10.9981 8 11H9V16H2V18H16V16H11ZM13 6H14V7C13.9995 7.53027 13.7886 8.03867 13.4136 8.41363C13.0387 8.78859 12.5303 8.99947 12 9H11V8C11.0005 7.46973 11.2114 6.96133 11.5864 6.58637C11.9613 6.21141 12.4697 6.00053 13 6ZM8 9C6.93954 8.99868 5.92289 8.57682 5.17303 7.82697C4.42318 7.07711 4.00132 6.06046 4 5V4H5C6.06046 4.00132 7.07711 4.42318 7.82697 5.17303C8.57682 5.92289 8.99868 6.93954 9 8V9H8Z" fill="#9747FF"/>
</svg>
