<svg width="40" height="40" viewBox="0 0 40 40" fill="none" xmlns="http://www.w3.org/2000/svg">
<path d="M20.0762 1.74961C18.7637 1.74961 17.5379 2.34727 16.4931 3.32594C15.4484 4.30485 14.554 5.66813 13.8085 7.31946C13.6522 7.66539 13.503 8.02493 13.3604 8.39579C12.9757 8.33472 12.5893 8.28454 12.2018 8.24532C11.751 8.2004 11.3111 8.1725 10.8838 8.1625C9.60099 8.13204 8.42857 8.26211 7.40099 8.5736C6.03099 8.98899 4.90052 9.75196 4.24427 10.8884C3.58802 12.0252 3.49271 13.3856 3.81794 14.7798C4.14333 16.174 4.87669 17.6302 5.93411 19.1016C6.15599 19.4102 6.39302 19.7197 6.64318 20.0291C6.39844 20.3313 6.16231 20.6402 5.93505 20.9557C4.87755 22.427 4.14419 23.8832 3.81888 25.2774C3.49357 26.6716 3.58896 28.0321 4.24521 29.1686C4.90146 30.3053 6.03193 31.0682 7.40193 31.4834C8.772 31.8989 10.3998 31.9918 12.2027 31.8117C12.5807 31.7739 12.9668 31.7234 13.3596 31.6616C13.499 32.0252 13.6487 32.3847 13.8085 32.7398C14.554 34.3914 15.4483 35.7545 16.4931 36.7333C17.5379 37.712 18.7638 38.3098 20.0762 38.3098C21.3886 38.3098 22.6145 37.712 23.6593 36.7333C24.704 35.7544 25.5983 34.3913 26.3439 32.7398C26.5037 32.3848 26.6534 32.0253 26.7928 31.6617C27.1851 31.7234 27.5709 31.774 27.9486 31.8117C29.7515 31.9917 31.3794 31.8988 32.7493 31.4834C34.1195 31.0681 35.25 30.3052 35.9062 29.1686C36.5625 28.0319 36.6578 26.6716 36.3326 25.2774C36.0072 23.8833 35.2737 22.4271 34.2164 20.9557C33.989 20.6403 33.7529 20.3313 33.5082 20.0291C33.7533 19.7268 33.9897 19.4175 34.2172 19.1016C35.2747 17.6302 36.008 16.1741 36.3333 14.7799C36.6586 13.3857 36.5633 12.0252 35.907 10.8885C35.2508 9.75204 34.1203 8.98907 32.7503 8.57368C31.7228 8.26219 30.5503 8.13211 29.2676 8.1625C28.84 8.1725 28.4001 8.2004 27.9493 8.24532C27.5712 8.28313 27.1847 8.33383 26.7918 8.39571C26.6525 8.03283 26.503 7.67394 26.3436 7.31946C25.598 5.66789 24.7037 4.30461 23.659 3.32586C22.6142 2.34711 21.3883 1.74953 20.0759 1.74953L20.0762 1.74961ZM20.0762 3.20953C20.9516 3.20953 21.81 3.59414 22.6611 4.39157C23.5121 5.18883 24.3249 6.39571 25.0132 7.92024C25.1251 8.16898 25.2315 8.42016 25.3324 8.6736C23.6592 9.04563 21.8871 9.61641 20.0758 10.3791C18.2648 9.61657 16.4929 9.04594 14.8201 8.67391C14.9233 8.41532 15.0294 8.16329 15.1393 7.92016C15.8276 6.39555 16.6404 5.18868 17.4915 4.39125C18.3426 3.59399 19.2008 3.20938 20.0764 3.20938L20.0762 3.20953ZM10.4208 9.62024C10.5617 9.61883 10.7049 9.61977 10.8503 9.62305C11.2378 9.63165 11.6407 9.65664 12.0568 9.69829C12.3229 9.72485 12.5948 9.75883 12.8711 9.79891C12.3566 11.4338 11.9649 13.2538 11.7194 15.2036C10.1532 16.3911 8.77271 17.6406 7.61396 18.9038C7.44437 18.6893 7.27956 18.4711 7.11966 18.2493C6.14349 16.891 5.50482 15.5837 5.23974 14.4479C4.97474 13.3121 5.07099 12.3766 5.50865 11.6184C5.9463 10.8603 6.70864 10.3093 7.82458 9.97094C8.557 9.74883 9.43396 9.62915 10.4207 9.62016L10.4208 9.62024ZM29.7308 9.62024C30.7175 9.62922 31.5944 9.74891 32.3268 9.97102C33.4429 10.3093 34.205 10.8603 34.6427 11.6184C35.0804 12.3766 35.1767 13.3122 34.9117 14.4479C34.6468 15.5836 34.0078 16.891 33.0318 18.2493C32.8719 18.4711 32.7071 18.6894 32.5376 18.904C31.379 17.6409 29.999 16.3917 28.4332 15.2044C28.1879 13.2542 27.7957 11.4341 27.2811 9.79891C27.5572 9.75883 27.8288 9.72469 28.0947 9.69829C28.4957 9.65765 28.8982 9.63253 29.3012 9.62297C29.4444 9.61972 29.5876 9.61876 29.7308 9.62008V9.62024ZM25.8308 10.0609C26.219 11.267 26.5405 12.5977 26.7804 14.0218C26.0053 13.4982 25.212 13.0022 24.4018 12.5347C23.5923 12.0671 22.7666 11.6282 21.9261 11.2188C23.2792 10.7145 24.5922 10.3277 25.8308 10.061V10.0609ZM14.3216 10.0611C15.5599 10.3278 16.8728 10.7147 18.2255 11.2189C17.385 11.6283 16.5593 12.0671 15.7497 12.5347C14.94 13.002 14.1469 13.4977 13.3721 14.0209C13.6119 12.5973 13.9333 11.2669 14.3216 10.0611ZM20.0758 11.972C21.2638 12.4961 22.4697 13.1052 23.6719 13.7992C24.8744 14.4936 26.0054 15.2336 27.0535 16.0008C27.1938 17.292 27.2693 18.6413 27.2693 20.0297C27.2693 21.4173 27.194 22.7661 27.0538 24.0567C26.0058 24.8238 24.8749 25.5636 23.6727 26.2578C22.4704 26.952 21.2641 27.5613 20.0758 28.0853C18.8874 27.5613 17.6811 26.952 16.4788 26.2578C15.2768 25.5638 14.1465 24.8242 13.0988 24.0575C12.9586 22.7666 12.8832 21.4177 12.8832 20.0296C12.8832 18.6409 12.9586 17.2915 13.099 16.0002C14.1468 15.2332 15.2775 14.4933 16.4797 13.7992C17.6818 13.1052 18.8878 12.4961 20.0758 11.9722V11.972ZM20.1745 14.1686L15.9947 16.7481L20.1745 19.3277L24.3543 16.7481L20.1745 14.1685V14.1686ZM11.5214 17.2259C11.4557 18.159 11.4229 19.0941 11.4232 20.0295C11.4232 20.9824 11.4568 21.9179 11.5215 22.8313C10.4082 21.9118 9.41654 20.9681 8.56622 20.0288C9.41654 19.0895 10.4081 18.1456 11.5214 17.2259ZM28.6311 17.2267C29.7439 18.1463 30.7353 19.0898 31.5853 20.0288C30.7353 20.9679 29.7439 21.9114 28.6311 22.8307C28.6968 21.8984 28.7295 20.9641 28.7293 20.0295C28.7293 19.0761 28.6957 18.1405 28.6311 17.2267H28.6311ZM15.053 17.8825V22.9761L19.4429 25.6852V20.5919L15.053 17.8825ZM25.2919 17.8852L20.9031 20.5938V25.6847L25.292 22.9761V17.8852H25.2919ZM7.6138 21.1539C8.77271 22.4172 10.153 23.6664 11.7191 24.8539C11.9644 26.8035 12.3563 28.6233 12.8707 30.2582C12.5949 30.2981 12.3233 30.3322 12.0577 30.3588C10.3933 30.5249 8.94154 30.4244 7.82552 30.0861C6.70943 29.7478 5.9474 29.1966 5.50966 28.4384C5.072 27.6802 4.97568 26.7447 5.24068 25.609C5.50568 24.4733 6.14443 23.1659 7.1206 21.8076C7.28017 21.5861 7.44456 21.3681 7.6138 21.1539ZM32.5376 21.1541C32.71 21.3729 32.8751 21.5909 33.0308 21.8076C34.0069 23.1658 34.6456 24.4732 34.9106 25.6089C35.1756 26.7446 35.0795 27.6802 34.6418 28.4384C34.204 29.1965 33.4418 29.7477 32.3258 30.086C31.2098 30.4243 29.7583 30.5248 28.0939 30.3587C27.8225 30.3311 27.5517 30.2977 27.2818 30.2583C27.7962 28.623 28.188 26.8028 28.4333 24.8528C29.999 23.6656 31.3791 22.4167 32.5376 21.154L32.5376 21.1541ZM26.7808 26.0356C26.5409 27.4595 26.2195 28.7903 25.8312 29.9963C24.5926 29.7297 23.2794 29.3426 21.9262 28.8384C22.767 28.4288 23.593 27.9898 24.4028 27.5221C25.2127 27.0547 26.0059 26.5589 26.7809 26.0356H26.7808ZM13.3718 26.0364C14.1463 26.5595 14.9391 27.055 15.7486 27.5221C16.5585 27.9898 17.3845 28.4288 18.2252 28.8384C16.8724 29.3425 15.5596 29.7295 14.3211 29.9962C13.9328 28.7904 13.6116 27.4599 13.3718 26.0364ZM20.1194 26.1028L20.1726 26.1356L20.2254 26.1028H20.1195H20.1194ZM20.0757 29.6784C21.8874 30.4409 23.6596 31.0116 25.333 31.3835C25.232 31.6377 25.1254 31.8896 25.0132 32.139C24.3249 33.6634 23.5121 34.8702 22.661 35.6677C21.81 36.465 20.9516 36.8497 20.0762 36.8497C19.2008 36.8497 18.3424 36.465 17.4914 35.6677C16.6404 34.8703 15.8276 33.6634 15.1393 32.1389C15.0271 31.8895 14.9204 31.6376 14.8193 31.3834C16.4925 31.0114 18.2645 30.4408 20.0758 29.6784H20.0757Z" fill="#9747FF"/>
</svg>
