<svg width="49" height="49" viewBox="0 0 49 49" fill="none" xmlns="http://www.w3.org/2000/svg">
<path d="M20.4167 0C17.7355 0 15.0806 0.528093 12.6035 1.55413C10.1265 2.58016 7.87577 4.08404 5.9799 5.9799C2.15104 9.80877 0 15.0018 0 20.4167C0 29.4408 5.85958 37.0971 13.965 39.8125C14.9858 39.9758 15.3125 39.3429 15.3125 38.7917V35.3413C9.65708 36.5662 8.4525 32.6054 8.4525 32.6054C7.51333 30.2371 6.18625 29.6042 6.18625 29.6042C4.32833 28.3383 6.32917 28.3792 6.32917 28.3792C8.37083 28.5221 9.45292 30.4821 9.45292 30.4821C11.2292 33.5854 14.2304 32.6667 15.3942 32.1767C15.5779 30.8496 16.1087 29.9513 16.6804 29.4408C12.1479 28.9304 7.39083 27.1746 7.39083 19.3958C7.39083 17.1296 8.16667 15.3125 9.49375 13.8629C9.28958 13.3525 8.575 11.2292 9.69792 8.47292C9.69792 8.47292 11.4129 7.92167 15.3125 10.5554C16.9254 10.1063 18.6812 9.88167 20.4167 9.88167C22.1521 9.88167 23.9079 10.1063 25.5208 10.5554C29.4204 7.92167 31.1354 8.47292 31.1354 8.47292C32.2583 11.2292 31.5437 13.3525 31.3396 13.8629C32.6667 15.3125 33.4425 17.1296 33.4425 19.3958C33.4425 27.195 28.665 28.91 24.1121 29.4204C24.8471 30.0533 25.5208 31.2988 25.5208 33.1975V38.7917C25.5208 39.3429 25.8475 39.9963 26.8887 39.8125C34.9942 37.0767 40.8333 29.4408 40.8333 20.4167C40.8333 17.7355 40.3052 15.0806 39.2792 12.6035C38.2532 10.1265 36.7493 7.87577 34.8534 5.9799C32.9576 4.08404 30.7069 2.58016 28.2298 1.55413C25.7527 0.528093 23.0978 0 20.4167 0Z" fill="#9747FF"/>
</svg>
