<svg width="41" height="41" viewBox="0 0 41 41" fill="none" xmlns="http://www.w3.org/2000/svg">
<path d="M20.5001 16.2633C19.6621 16.2633 18.843 16.5118 18.1463 16.9773C17.4496 17.4429 16.9066 18.1046 16.5859 18.8787C16.2652 19.6529 16.1813 20.5047 16.3448 21.3265C16.5083 22.1484 16.9118 22.9033 17.5043 23.4958C18.0968 24.0883 18.8517 24.4918 19.6735 24.6553C20.4954 24.8187 21.3472 24.7348 22.1214 24.4142C22.8955 24.0935 23.5572 23.5505 24.0227 22.8538C24.4883 22.1571 24.7367 21.3379 24.7367 20.5C24.7367 19.9436 24.6272 19.3927 24.4143 18.8787C24.2013 18.3647 23.8893 17.8976 23.4959 17.5042C23.1024 17.1108 22.6354 16.7987 22.1214 16.5858C21.6074 16.3729 21.0564 16.2633 20.5001 16.2633ZM37.4638 12.0779C37.4548 10.7587 37.2119 9.45148 36.7463 8.21709C36.4034 7.31382 35.8729 6.49354 35.1897 5.81036C34.5065 5.12719 33.6863 4.59665 32.783 4.25376C31.5486 3.78817 30.2414 3.54524 28.9222 3.53625C26.7184 3.41667 26.0692 3.41667 20.5001 3.41667C14.9309 3.41667 14.2817 3.41667 12.078 3.53625C10.7588 3.54524 9.45156 3.78817 8.21716 4.25376C7.3139 4.59665 6.49362 5.12719 5.81044 5.81036C5.12726 6.49354 4.59672 7.31382 4.25383 8.21709C3.78825 9.45148 3.54532 10.7587 3.53633 12.0779C3.41675 14.2817 3.41675 14.9308 3.41675 20.5C3.41675 26.0692 3.41675 26.7183 3.53633 28.9221C3.55472 30.246 3.79732 31.5572 4.25383 32.8C4.5952 33.6991 5.1253 34.5147 5.80841 35.1917C6.48866 35.8789 7.3107 36.4095 8.21716 36.7463C9.45156 37.2118 10.7588 37.4548 12.078 37.4638C14.2817 37.5833 14.9309 37.5833 20.5001 37.5833C26.0692 37.5833 26.7184 37.5833 28.9222 37.4638C30.2414 37.4548 31.5486 37.2118 32.783 36.7463C33.6895 36.4095 34.5115 35.8789 35.1917 35.1917C35.8749 34.5147 36.405 33.6991 36.7463 32.8C37.2115 31.5596 37.4543 30.2468 37.4638 28.9221C37.5834 26.7183 37.5834 26.0692 37.5834 20.5C37.5834 14.9308 37.5834 14.2817 37.4638 12.0779ZM33.1247 25.7446C33.0698 26.7988 32.8449 27.8372 32.4584 28.8196C32.1268 29.6391 31.6337 30.3835 31.0086 31.0086C30.3835 31.6337 29.6391 32.1267 28.8197 32.4583C27.828 32.8232 26.7838 33.0251 25.7276 33.0563H15.2726C14.2164 33.0251 13.1722 32.8232 12.1805 32.4583C11.3333 32.1435 10.5683 31.6413 9.94258 30.9892C9.3236 30.3763 8.84556 29.6359 8.54175 28.8196C8.17541 27.829 7.97903 26.7836 7.96091 25.7275V15.2725C7.97903 14.2165 8.17541 13.1711 8.54175 12.1804C8.85656 11.3333 9.3588 10.5682 10.0109 9.94251C10.6265 9.32686 11.3661 8.84933 12.1805 8.54167C13.1722 8.17678 14.2164 7.97486 15.2726 7.94376H25.7276C26.7838 7.97486 27.828 8.17678 28.8197 8.54167C29.6668 8.85649 30.4319 9.35872 31.0576 10.0108C31.6766 10.6237 32.1546 11.3641 32.4584 12.1804C32.8233 13.1721 33.0252 14.2163 33.0563 15.2725V20.5C33.0563 24.0192 33.1759 24.3779 33.1247 25.7275V25.7446ZM30.3913 13.0346C30.1879 12.4828 29.8672 11.9816 29.4514 11.5658C29.0355 11.1499 28.5344 10.8292 27.9826 10.6258C27.2249 10.3632 26.4269 10.236 25.6251 10.25H15.3751C14.5692 10.2579 13.7711 10.4083 13.0176 10.6942C12.4742 10.8883 11.9784 11.1959 11.5631 11.5965C11.1478 11.9971 10.8225 12.4815 10.6088 13.0175C10.3607 13.7783 10.2395 14.5748 10.2501 15.375V25.625C10.267 26.43 10.4171 27.2266 10.6942 27.9825C10.8976 28.5343 11.2183 29.0354 11.6342 29.4513C12.0501 29.8672 12.5512 30.1879 13.103 30.3913C13.8319 30.6593 14.5989 30.8093 15.3751 30.8354H25.6251C26.431 30.8275 27.2291 30.6772 27.9826 30.3913C28.5344 30.1879 29.0355 29.8672 29.4514 29.4513C29.8672 29.0354 30.1879 28.5343 30.3913 27.9825C30.6773 27.229 30.8276 26.4309 30.8355 25.625V15.375C30.836 14.5683 30.6853 13.7687 30.3913 13.0175V13.0346ZM20.5001 27.0258C19.6439 27.0258 18.7961 26.8569 18.0053 26.5288C17.2145 26.2006 16.4963 25.7196 15.8917 25.1134C15.287 24.5072 14.808 23.7877 14.4819 22.996C14.1558 22.2044 13.9891 21.3562 13.9913 20.5C13.9913 19.2086 14.3745 17.9462 15.0923 16.8727C15.8102 15.7991 16.8304 14.9627 18.0238 14.4693C19.2172 13.9759 20.5302 13.8477 21.7966 14.1008C23.0629 14.354 24.2257 14.9773 25.1377 15.8916C26.0496 16.806 26.6698 17.9704 26.9197 19.2374C27.1696 20.5044 27.0379 21.8171 26.5413 23.0092C26.0448 24.2013 25.2057 25.2193 24.1303 25.9344C23.0549 26.6494 21.7915 27.0292 20.5001 27.0258ZM27.3334 15.2554C26.9558 15.2154 26.6063 15.0371 26.3523 14.7548C26.0983 14.4725 25.9578 14.1062 25.9578 13.7265C25.9578 13.3467 26.0983 12.9804 26.3523 12.6981C26.6063 12.4158 26.9558 12.2375 27.3334 12.1975C27.7111 12.2375 28.0605 12.4158 28.3145 12.6981C28.5685 12.9804 28.7091 13.3467 28.7091 13.7265C28.7091 14.1062 28.5685 14.4725 28.3145 14.7548C28.0605 15.0371 27.7111 15.2154 27.3334 15.2554Z" fill="#9747FF"/>
</svg>
