<svg width="48" height="48" viewBox="0 0 48 48" fill="none" xmlns="http://www.w3.org/2000/svg">
<path d="M22.7714 9.31949C23.1466 9.10969 23.5693 8.99953 23.9991 8.99953C24.429 8.99953 24.8517 9.10969 25.2269 9.31949L36.4454 15.657C36.7969 15.8571 37.0897 16.146 37.2945 16.4948C37.4993 16.8436 37.6089 17.24 37.6124 17.6445V30.357C37.6055 30.7771 37.4854 31.1875 37.2647 31.5449C37.0439 31.9024 36.7308 32.1937 36.3584 32.388L25.1804 38.694C24.7981 38.9053 24.3663 39.0103 23.9297 38.9981C23.4931 38.986 23.0678 38.8572 22.6979 38.625L19.3439 36.687C19.0984 36.5773 18.8778 36.4185 18.6959 36.2205C18.8384 36.0285 19.0934 36.0045 19.3004 35.9205C19.7602 35.7562 20.2036 35.5493 20.6249 35.3025C20.6779 35.2712 20.7391 35.2565 20.8006 35.2602C20.8621 35.264 20.921 35.286 20.9699 35.3235C21.9239 35.871 22.8704 36.435 23.8304 36.978C24.0344 37.0965 24.2414 36.939 24.4154 36.843C28.0734 34.775 31.7319 32.71 35.3909 30.648C35.4562 30.6154 35.5101 30.5639 35.5457 30.5003C35.5813 30.4366 35.5968 30.3637 35.5904 30.291C35.5934 26.098 35.5939 21.9045 35.5919 17.7105C35.5984 17.629 35.5794 17.5475 35.5375 17.4773C35.4955 17.4072 35.4328 17.3518 35.3579 17.319C31.6439 15.227 27.9309 13.134 24.2189 11.04C24.1544 10.9957 24.0781 10.9721 23.9999 10.9721C23.9217 10.9721 23.8453 10.9957 23.7809 11.04C20.0679 13.132 16.3559 15.2255 12.6449 17.3205C12.5696 17.3524 12.5063 17.4073 12.464 17.4773C12.4217 17.5474 12.4026 17.629 12.4094 17.7105V30.291C12.403 30.3634 12.4191 30.436 12.4553 30.499C12.4915 30.5621 12.5461 30.6125 12.6119 30.6435C13.6019 31.2055 14.5934 31.7655 15.5864 32.3235C15.8614 32.4935 16.1693 32.6036 16.4898 32.6465C16.8103 32.6894 17.1363 32.6642 17.4464 32.5725C17.7156 32.4712 17.9473 32.2901 18.1106 32.0533C18.2739 31.8166 18.3609 31.5356 18.3599 31.248C18.3644 27.078 18.3569 22.908 18.3629 18.741C18.3619 18.6968 18.3702 18.6528 18.3873 18.612C18.4044 18.5712 18.43 18.5344 18.4622 18.5041C18.4945 18.4739 18.5328 18.4507 18.5746 18.4362C18.6164 18.4217 18.6608 18.4162 18.7049 18.42C19.1819 18.417 19.6574 18.414 20.1344 18.4215C20.1807 18.4237 20.2261 18.4356 20.2675 18.4565C20.3089 18.4773 20.3454 18.5067 20.3747 18.5427C20.404 18.5786 20.4254 18.6203 20.4375 18.6651C20.4496 18.7099 20.4521 18.7567 20.4449 18.8025C20.4434 22.998 20.4494 27.1935 20.4419 31.3875C20.4739 31.9576 20.3523 32.5259 20.0897 33.033C19.8272 33.5401 19.4334 33.9675 18.9494 34.2705C18.303 34.5716 17.5954 34.7182 16.8826 34.6987C16.1698 34.6792 15.4713 34.4941 14.8424 34.158C13.7519 33.6135 12.7124 32.973 11.6429 32.388C11.2704 32.1938 10.9573 31.9026 10.7368 31.545C10.5164 31.1875 10.3966 30.777 10.3904 30.357V17.6445C10.3936 17.2319 10.5071 16.8277 10.7191 16.4737C10.9312 16.1197 11.2341 15.829 11.5964 15.6315C15.3224 13.5285 19.0479 11.4245 22.7729 9.31949H22.7714Z" fill="#9747FF"/>
<path d="M26.0219 18.1245C27.6684 17.9118 29.3416 18.1681 30.8489 18.864C31.3951 19.1898 31.8468 19.6527 32.1591 20.2068C32.4714 20.7609 32.6335 21.387 32.6294 22.023C32.6083 22.1026 32.5592 22.1718 32.4912 22.2181C32.4231 22.2644 32.3406 22.2846 32.2589 22.275C31.7864 22.275 31.3154 22.281 30.8444 22.272C30.7535 22.2664 30.6679 22.227 30.6046 22.1614C30.5413 22.0959 30.5048 22.0091 30.5024 21.918C30.4489 21.6101 30.329 21.3175 30.151 21.0605C29.9731 20.8036 29.7413 20.5884 29.4719 20.43C28.5751 20.0736 27.6067 19.9348 26.6459 20.025C25.9378 20.003 25.2374 20.1774 24.6224 20.529C24.4106 20.6933 24.2556 20.9198 24.1792 21.1768C24.1028 21.4337 24.1088 21.7082 24.1964 21.9615C24.3479 22.3215 24.7634 22.437 25.1039 22.5435C27.0629 23.0565 29.1389 23.0055 31.0589 23.679C31.4714 23.7938 31.8521 24.0015 32.1719 24.2862C32.4917 24.5709 32.7421 24.9251 32.9039 25.3215C33.0964 25.8837 33.1429 26.4856 33.039 27.0707C32.9351 27.6558 32.6842 28.2049 32.3099 28.6665C31.6327 29.37 30.7528 29.8446 29.7929 30.024C28.5429 30.278 27.2605 30.3327 25.9934 30.186C24.7773 30.1162 23.6115 29.6772 22.6514 28.9275C22.2711 28.5781 21.9726 28.1489 21.7774 27.6708C21.5821 27.1926 21.4949 26.6773 21.5219 26.1615C21.5313 26.0788 21.573 26.0031 21.6379 25.9509C21.7027 25.8986 21.7855 25.8741 21.8684 25.8825C22.3439 25.878 22.8179 25.8765 23.2934 25.8825C23.3374 25.8817 23.3811 25.8896 23.422 25.9058C23.4629 25.922 23.5002 25.9462 23.5317 25.9768C23.5632 26.0075 23.5883 26.0441 23.6056 26.0846C23.6229 26.125 23.632 26.1685 23.6324 26.2125C23.6558 26.5066 23.7392 26.7927 23.8775 27.0533C24.0157 27.3139 24.206 27.5433 24.4364 27.7275C25.4531 28.2278 26.5891 28.4346 27.7169 28.3245C28.6611 28.3966 29.6037 28.1659 30.4079 27.666C30.5932 27.4853 30.7281 27.2593 30.7991 27.0104C30.8702 26.7615 30.8749 26.4983 30.8129 26.247C30.6959 25.827 30.2579 25.632 29.8814 25.5045C27.9464 24.8925 25.8494 25.1145 23.9339 24.4245C23.5322 24.3066 23.1608 24.103 22.8454 23.8278C22.53 23.5525 22.278 23.2121 22.1069 22.83C21.8869 22.2602 21.8313 21.6401 21.9464 21.0403C22.0615 20.4404 22.3427 19.8849 22.7579 19.437C23.663 18.6378 24.8155 18.1743 26.0219 18.1245Z" fill="#9747FF"/>
</svg>
