<svg width="52" height="52" viewBox="0 0 52 52" fill="none" xmlns="http://www.w3.org/2000/svg">
<path d="M0.221 15.9207C0.0736667 15.9207 0 15.9943 0 16.1417V30.771C0 30.9183 0.0736667 30.992 0.221 30.992H1.7485C1.89583 30.992 1.97167 30.9183 1.97167 30.7688V27.5622L2.87733 26.6955L6.13167 30.8338C6.16822 30.8815 6.21508 30.9203 6.26873 30.9473C6.32238 30.9743 6.38144 30.9889 6.4415 30.9898H8.411C8.515 30.9898 8.5735 30.9617 8.58867 30.9032C8.61683 30.8143 8.60167 30.7407 8.54533 30.6822L4.251 25.3478L8.36767 21.3633C8.411 21.32 8.4175 21.255 8.38933 21.164C8.359 21.0903 8.3005 21.0557 8.21167 21.0557H6.175C6.07317 21.0557 5.96917 21.1055 5.86517 21.2073L1.97167 25.1507V16.1417C1.97167 15.9943 1.89583 15.9207 1.7485 15.9207H0.221ZM39.312 15.9207C39.1647 15.9207 39.091 15.9943 39.091 16.1417V30.771C39.091 30.9183 39.1647 30.9898 39.312 30.9898H40.8395C40.9868 30.9898 41.0605 30.9162 41.0605 30.7688V16.1417C41.0605 15.9943 40.9868 15.9207 40.8395 15.9207H39.312ZM12.9155 20.8542C11.6913 20.8542 10.5105 21.2463 9.37517 22.0285C9.256 22.1455 9.23433 22.2495 9.308 22.3383L10.1053 23.465C10.1638 23.569 10.2592 23.5842 10.3935 23.5105C11.2472 22.9212 12.09 22.6243 12.9155 22.6243C13.5503 22.6243 14.0335 22.8193 14.365 23.2007C14.5297 23.3907 14.6532 23.6128 14.7278 23.8529C14.8024 24.0931 14.8264 24.3461 14.7983 24.596C13.3662 24.7433 12.2958 24.921 11.5873 25.1268C9.789 25.6425 8.88767 26.624 8.88767 28.0692C8.88767 28.9835 9.21917 29.7375 9.88433 30.3268C10.5625 30.9032 11.3663 31.1892 12.2958 31.1892C13.3142 31.1892 14.1483 30.9465 14.7962 30.459V30.7688C14.7962 30.9183 14.8785 30.9898 15.041 30.9898H16.5663C16.7137 30.9898 16.7873 30.9183 16.7873 30.7688V24.6393C16.7873 23.2093 16.302 22.1693 15.327 21.5193C14.664 21.0752 13.8602 20.8542 12.9155 20.8542ZM22.2798 20.8542C20.8195 20.8542 19.6928 21.424 18.8955 22.5593C18.2173 23.504 17.8772 24.6545 17.8772 26.013C17.8772 27.443 18.2303 28.6303 18.9388 29.575C19.7513 30.6518 20.8715 31.1892 22.3037 31.1892C23.4542 31.1892 24.3772 30.9032 25.0705 30.3268V31.4773C25.0705 33.3363 24.1757 34.2658 22.3925 34.2658C21.6103 34.2658 20.8065 33.8542 19.9788 33.0265C19.9589 33.0058 19.935 32.9894 19.9086 32.9782C19.8821 32.9671 19.8537 32.9614 19.825 32.9615C19.7925 32.9596 19.76 32.9644 19.7294 32.9756C19.6989 32.9868 19.6709 33.0041 19.6473 33.0265L18.6073 34.0665C18.5207 34.2008 18.525 34.3113 18.629 34.4002C18.9237 34.6493 19.1837 34.8595 19.4047 35.0285C19.6257 35.1997 19.8163 35.3362 19.9788 35.4402C20.7458 35.867 21.5583 36.0815 22.4142 36.0815C23.8875 36.0815 25.0293 35.6633 25.8332 34.8313C26.637 33.9972 27.04 32.7752 27.04 31.1697V21.2767C27.04 21.1293 26.9663 21.0557 26.819 21.0557H25.2915C25.142 21.0557 25.0705 21.1293 25.0705 21.2767V21.7187C24.3165 21.1423 23.387 20.8542 22.282 20.8542H22.2798ZM32.6863 20.8542C31.2238 20.8542 30.0972 21.424 29.2998 22.5593C28.6217 23.504 28.2815 24.6545 28.2815 26.013C28.2815 27.443 28.6347 28.6303 29.3432 29.575C30.1557 30.6518 31.2758 31.1892 32.708 31.1892C33.8585 31.1892 34.7815 30.9032 35.4748 30.3268V31.4773C35.4748 33.3363 34.5822 34.2658 32.7968 34.2658C32.0147 34.2658 31.2108 33.8542 30.3832 33.0265C30.3633 33.0058 30.3393 32.9894 30.3129 32.9782C30.2865 32.9671 30.258 32.9614 30.2293 32.9615C30.1969 32.9596 30.1643 32.9644 30.1338 32.9756C30.1032 32.9868 30.0753 33.0041 30.0517 33.0265L29.0117 34.0665C28.925 34.2008 28.9315 34.3113 29.0333 34.4002C29.328 34.6493 29.588 34.8595 29.809 35.0285C30.03 35.1997 30.2207 35.3362 30.3853 35.4402C31.1523 35.867 31.9627 36.0815 32.8185 36.0815C34.294 36.0815 35.4337 35.6633 36.2375 34.8313C37.0413 33.9972 37.4443 32.7752 37.4443 31.1697V21.2767C37.4443 21.1293 37.3707 21.0557 37.2233 21.0557H35.6958C35.5485 21.0557 35.4748 21.1293 35.4748 21.2767V21.7187C34.7208 21.1423 33.7913 20.8542 32.6863 20.8542ZM47.3005 20.8542C45.8857 20.8542 44.733 21.3113 43.849 22.2278C42.8892 23.231 42.4103 24.4552 42.4103 25.9003C42.4103 27.4365 42.8978 28.6953 43.8707 29.6855C44.8738 30.6887 46.1283 31.1892 47.6342 31.1892C49.0338 31.1892 50.2667 30.7927 51.3283 29.9953C51.4475 29.9065 51.4475 29.8047 51.3283 29.6855L50.2883 28.6238C50.2017 28.535 50.089 28.535 49.9568 28.6238C49.3068 29.0788 48.5767 29.3085 47.7663 29.3085C46.8498 29.3085 46.0915 29.0507 45.487 28.535C44.9634 28.0652 44.6317 27.4187 44.5553 26.7193H51.7487C51.896 26.7193 51.9697 26.6457 51.9697 26.4983L51.9913 26.013C52.0672 24.5223 51.6317 23.283 50.687 22.2928C50.2559 21.8278 49.7313 21.4591 49.1477 21.2112C48.564 20.9633 47.9345 20.8416 47.3005 20.8542ZM47.2572 22.5593C47.9276 22.5458 48.5774 22.7919 49.0707 23.2462C49.6037 23.7012 49.8745 24.271 49.8897 24.9492H44.5575C44.6875 24.2407 45.006 23.6643 45.5087 23.2223C46.0092 22.7803 46.592 22.5593 47.2572 22.5593ZM22.503 22.7803C23.8463 22.7803 24.7 23.2527 25.0705 24.1973V27.8482C24.7022 28.7928 23.8225 29.2652 22.4358 29.2652C21.7577 29.2652 21.203 29.0507 20.7762 28.6238C20.1998 28.0778 19.9138 27.2068 19.9138 26.0108C19.9138 23.8572 20.7762 22.7803 22.503 22.7803ZM32.9073 22.7803C34.2507 22.7803 35.1065 23.2527 35.4748 24.1973V27.8482C35.1065 28.7928 34.2268 29.2652 32.8402 29.2652C32.162 29.2652 31.6095 29.0507 31.1805 28.6238C30.6063 28.0778 30.3182 27.2068 30.3182 26.0108C30.3182 23.8572 31.1805 22.7803 32.9073 22.7803ZM14.7962 26.3662V28.5783C14.1765 29.198 13.351 29.471 12.3175 29.3973C11.9672 29.3751 11.6298 29.2567 11.3425 29.055C11.2102 28.9661 11.0985 28.8499 11.0148 28.7143C10.9311 28.5786 10.8773 28.4266 10.8572 28.2685C10.7835 27.6922 11.1085 27.2502 11.8322 26.9403C12.363 26.7042 13.3488 26.5135 14.7962 26.3662Z" fill="#9747FF"/>
</svg>
