<svg width="31" height="30" viewBox="0 0 31 30" fill="none" xmlns="http://www.w3.org/2000/svg">
<path fill-rule="evenodd" clip-rule="evenodd" d="M20.5682 7.67045C20.4509 6.68044 18.4746 5.84274 16.8576 5.15736C16.1236 4.84625 15.4637 4.56652 15.0852 4.31818C13.8731 3.52273 12.3864 3.125 10.625 3.125C9.33712 3.125 8.21023 3.33333 7.24432 3.75C6.28788 4.16667 5.53977 4.73958 5 5.46875C4.4697 6.19792 4.20455 7.02652 4.20455 7.95455C4.20455 8.73106 4.3892 9.39867 4.75852 9.95739C5.13731 10.5066 5.62027 10.9659 6.20739 11.3352C6.79451 11.6951 7.41004 11.9934 8.05398 12.2301C8.69792 12.4574 9.28977 12.642 9.82955 12.7841L12.7841 13.5795C13.5417 13.7784 14.3845 14.053 15.3125 14.4034C16.25 14.7538 17.1449 15.232 17.9972 15.8381C18.8159 16.4049 19.4978 17.1255 20.043 18H24.3966L20 1L31 30H27.5L25.1687 20.9858C25.1139 20.9951 25.0575 21 25 21H20.9476C20.9598 21.1923 20.9659 21.3893 20.9659 21.5909C20.9659 23.1629 20.554 24.5833 19.7301 25.8523C18.9157 27.1212 17.7225 28.1297 16.1506 28.8778C14.5881 29.6259 12.6894 30 10.4545 30C8.37121 30 6.56723 29.6638 5.04261 28.9915C3.52746 28.3191 2.33428 27.3816 1.46307 26.179C0.601326 24.9763 0.113636 23.5795 0 21.9886C0.0570658 22.6506 1.53439 23.2438 2.84043 23.7682C3.70167 24.114 4.48843 24.4299 4.74432 24.7159C5.39773 25.4261 6.22159 25.9564 7.21591 26.3068C8.2197 26.6477 9.29924 26.8182 10.4545 26.8182C11.7992 26.8182 13.0066 26.6004 14.0767 26.1648C15.1468 25.7197 15.9943 25.1042 16.6193 24.3182C17.2443 23.5227 17.5568 22.5947 17.5568 21.5341C17.5568 20.5682 17.2869 19.7822 16.7472 19.1761C16.2074 18.5701 15.4972 18.0777 14.6165 17.6989C13.7358 17.3201 12.7841 16.9886 11.7614 16.7045L8.18182 15.6818C5.90909 15.0284 4.10985 14.0956 2.78409 12.8835C1.45833 11.6714 0.795455 10.0852 0.795455 8.125C0.795455 6.49621 1.2358 5.07576 2.11648 3.86364C3.00663 2.64205 4.19981 1.69508 5.69602 1.02273C7.2017 0.340909 8.88258 0 10.7386 0C12.6136 0 14.2803 0.336174 15.7386 1.00852C17.197 1.6714 18.3523 2.58049 19.2045 3.7358C20.0663 4.8911 20.5208 6.20265 20.5682 7.67045Z" fill="#9747FF"/>
</svg>
