<svg width="13" height="13" viewBox="0 0 13 13" fill="none" xmlns="http://www.w3.org/2000/svg">
<path d="M10.9999 3.4L2.1249 12.3C1.9249 12.5 1.68724 12.6 1.4119 12.6C1.13657 12.6 0.899235 12.5 0.699902 12.3C0.499902 12.1 0.399902 11.8627 0.399902 11.588C0.399902 11.3133 0.499902 11.0757 0.699902 10.875L9.5999 2H1.9999C1.71657 2 1.4789 1.904 1.2869 1.712C1.0949 1.52 0.999236 1.28267 0.999902 1C0.999902 0.71667 1.0959 0.479003 1.2879 0.287003C1.4799 0.0950032 1.71724 -0.000663206 1.9999 3.46022e-06H11.9999C12.2832 3.46022e-06 12.5209 0.0960036 12.7129 0.288004C12.9049 0.480004 13.0006 0.717336 12.9999 1V11C12.9999 11.2833 12.9039 11.521 12.7119 11.713C12.5199 11.905 12.2826 12.0007 11.9999 12C11.7166 12 11.4789 11.9043 11.2869 11.713C11.0949 11.5217 10.9992 11.284 10.9999 11V3.4Z" fill="white"/>
</svg>
