<svg width="32" height="32" viewBox="0 0 32 32" fill="none" xmlns="http://www.w3.org/2000/svg">
<path d="M25.5201 10C26.5314 10 27.5014 10.4018 28.2165 11.1169C28.9317 11.832 29.3334 12.802 29.3334 13.8133V18.8533C29.3334 19.3541 29.2348 19.85 29.0431 20.3126C28.8515 20.7753 28.5706 21.1957 28.2165 21.5498C27.8624 21.9039 27.442 22.1848 26.9794 22.3764C26.5167 22.568 26.0209 22.6667 25.5201 22.6667H16.0001C16.0001 23.1867 16.4267 23.9467 16.9467 23.9467H22.6667V26.1867C22.6667 27.198 22.265 28.168 21.5498 28.8831C20.8347 29.5982 19.8648 30 18.8534 30H13.1467C12.1354 30 11.1655 29.5982 10.4503 28.8831C9.73518 28.168 9.33341 27.198 9.33341 26.1867V21.1867C9.33341 20.6865 9.43214 20.1913 9.62394 19.7294C9.81574 19.2675 10.0968 18.848 10.4511 18.4949C10.8054 18.1419 11.2259 17.8623 11.6885 17.6721C12.151 17.4819 12.6466 17.3849 13.1467 17.3867H20.1467C20.6469 17.3867 21.1421 17.2879 21.604 17.0961C22.0659 16.9043 22.4854 16.6232 22.8385 16.269C23.1915 15.9147 23.4711 15.4942 23.6613 15.0316C23.8515 14.569 23.9485 14.0735 23.9467 13.5733V10H25.5201ZM19.8134 25.72C19.2801 25.72 18.8534 26.12 18.8534 26.9067C18.8534 27.6933 19.2801 27.8533 19.8134 27.8533C19.9377 27.8533 20.0608 27.8288 20.1757 27.7813C20.2905 27.7337 20.3949 27.664 20.4828 27.5761C20.5707 27.4882 20.6404 27.3838 20.688 27.2689C20.7356 27.1541 20.7601 27.031 20.7601 26.9067C20.7601 26.12 20.3334 25.72 19.8134 25.72ZM6.48008 23.3333C5.46872 23.3333 4.49879 22.9316 3.78365 22.2164C3.06851 21.5013 2.66675 20.5314 2.66675 19.52V14.48C2.66675 13.9792 2.76538 13.4834 2.95702 13.0207C3.14866 12.558 3.42955 12.1377 3.78365 11.7836C4.49879 11.0684 5.46872 10.6667 6.48008 10.6667H16.0001C16.0001 10.1467 15.5734 9.38667 15.0534 9.38667H9.33341V7.14667C9.33341 6.13531 9.73518 5.16537 10.4503 4.45024C11.1655 3.7351 12.1354 3.33334 13.1467 3.33334H18.8534C19.3542 3.33334 19.8501 3.43197 20.3127 3.62361C20.7754 3.81525 21.1957 4.09613 21.5498 4.45024C21.9039 4.80434 22.1848 5.22471 22.3765 5.68737C22.5681 6.15002 22.6667 6.6459 22.6667 7.14667V12.1467C22.6667 12.6468 22.568 13.142 22.3762 13.604C22.1844 14.0659 21.9033 14.4854 21.549 14.8384C21.1948 15.1914 20.7743 15.4711 20.3117 15.6612C19.8491 15.8514 19.3536 15.9484 18.8534 15.9467H11.8534C11.3533 15.9467 10.858 16.0454 10.3961 16.2372C9.93422 16.429 9.51472 16.7101 9.16168 17.0644C8.80865 17.4186 8.52902 17.8391 8.33884 18.3017C8.14865 18.7643 8.05166 19.2599 8.05341 19.76V23.3333H6.48008ZM12.1867 7.61334C12.7201 7.61334 13.1467 7.21334 13.1467 6.42667C13.1467 5.64 12.7201 5.48 12.1867 5.48C11.6667 5.48 11.2401 5.64 11.2401 6.42667C11.2401 7.21334 11.6667 7.61334 12.1867 7.61334Z" fill="#9747FF"/>
</svg>
