<svg width="35" height="35" viewBox="0 0 35 35" fill="none" xmlns="http://www.w3.org/2000/svg">
<path d="M13.6501 11.1125C14.6301 11.1125 15.4176 10.325 15.4176 9.345C15.4176 8.365 14.6301 7.5775 13.6501 7.5775C12.6701 7.5775 11.8826 8.365 11.8826 9.345C11.8826 10.325 12.6701 11.1125 13.6501 11.1125Z" fill="white"/>
<path fill-rule="evenodd" clip-rule="evenodd" d="M17.2025 14.9625C17.2025 13.0725 15.61 11.7075 13.65 11.7075C11.69 11.7075 10.0975 13.0725 10.0975 14.9625V15.855C10.0975 16.0125 10.1675 16.17 10.2725 16.275C10.3775 16.38 10.535 16.45 10.6925 16.45H16.6075C16.765 16.45 16.9225 16.38 17.0275 16.275C17.1325 16.17 17.2025 16.0125 17.2025 15.855V14.9625ZM10.0625 20.125C10.0625 19.7769 10.2008 19.4431 10.4469 19.1969C10.6931 18.9508 11.0269 18.8125 11.375 18.8125H23.625C23.9731 18.8125 24.3069 18.9508 24.5531 19.1969C24.7992 19.4431 24.9375 19.7769 24.9375 20.125C24.9375 20.4731 24.7992 20.8069 24.5531 21.0531C24.3069 21.2992 23.9731 21.4375 23.625 21.4375H11.375C11.0269 21.4375 10.6931 21.2992 10.4469 21.0531C10.2008 20.8069 10.0625 20.4731 10.0625 20.125ZM10.0625 25.375C10.0625 25.0269 10.2008 24.6931 10.4469 24.4469C10.6931 24.2008 11.0269 24.0625 11.375 24.0625H23.625C23.9731 24.0625 24.3069 24.2008 24.5531 24.4469C24.7992 24.6931 24.9375 25.0269 24.9375 25.375C24.9375 25.7231 24.7992 26.0569 24.5531 26.3031C24.3069 26.5492 23.9731 26.6875 23.625 26.6875H11.375C11.0269 26.6875 10.6931 26.5492 10.4469 26.3031C10.2008 26.0569 10.0625 25.7231 10.0625 25.375Z" fill="white"/>
<path fill-rule="evenodd" clip-rule="evenodd" d="M4.375 4.375C4.375 2.4465 5.9465 0.875 7.875 0.875H19.5825C20.566 0.875 21.4935 1.2915 22.1462 1.97925L22.1567 1.9915L29.7027 10.22C30.331 10.8903 30.625 11.767 30.625 12.6V30.625C30.625 32.5535 29.0535 34.125 27.125 34.125H7.875C5.9465 34.125 4.375 32.5535 4.375 30.625V4.375ZM19.5808 4.375H7.875V30.625H27.125V12.586L19.607 4.38725L19.6018 4.3855C19.5954 4.38087 19.5883 4.37732 19.5808 4.375Z" fill="white"/>
<path fill-rule="evenodd" clip-rule="evenodd" d="M19.5825 0.875C20.0466 0.875 20.4918 1.05937 20.82 1.38756C21.1481 1.71575 21.3325 2.16087 21.3325 2.625V10.85H28.875C29.1048 10.85 29.3324 10.8953 29.5447 10.9832C29.757 11.0712 29.95 11.2001 30.1125 11.3626C30.275 11.5251 30.4039 11.718 30.4918 11.9303C30.5798 12.1426 30.625 12.3702 30.625 12.6C30.625 12.8298 30.5798 13.0574 30.4918 13.2697C30.4039 13.482 30.275 13.6749 30.1125 13.8374C29.95 13.9999 29.757 14.1288 29.5447 14.2168C29.3324 14.3047 29.1048 14.35 28.875 14.35H19.5825C19.1184 14.35 18.6733 14.1656 18.3451 13.8374C18.0169 13.5092 17.8325 13.0641 17.8325 12.6V2.625C17.8325 2.16087 18.0169 1.71575 18.3451 1.38756C18.6733 1.05937 19.1184 0.875 19.5825 0.875Z" fill="white"/>
</svg>
