<svg width="40" height="40" viewBox="0 0 40 40" fill="none" xmlns="http://www.w3.org/2000/svg">
<path d="M27.6771 0V2.16599C26.4143 2.38289 25.215 2.87634 24.1651 3.61101L22.5755 2.1167L20.4575 4.38128L21.9978 5.82476C21.2932 6.85183 20.8168 8.01801 20.6007 9.24475H18.435V12.3258H20.6007C20.8256 13.6045 21.3309 14.7691 22.0456 15.792L20.4082 17.3788L22.6263 19.5971L24.2129 17.958C25.2357 18.6728 26.4002 19.1781 27.6787 19.403V21.5675H30.7594V19.4015C31.9859 19.186 33.1519 18.71 34.179 18.0058L35.6208 19.5463L37.8851 17.4265L36.3909 15.8398C37.1149 14.8076 37.6078 13.6137 37.8358 12.3243H40V9.24321H37.8343C37.6125 7.99585 37.1193 6.8125 36.3894 5.77701L37.8343 4.33199L35.667 2.16599L34.2237 3.61101C33.1883 2.88106 32.0051 2.38774 30.7579 2.16599V0H27.6771ZM29.2175 5.10379C29.9648 5.09888 30.7056 5.24244 31.3969 5.52612C32.0882 5.80981 32.7164 6.22798 33.2449 6.75637C33.7733 7.28477 34.1916 7.91286 34.4755 8.60421C34.7593 9.29556 34.903 10.0364 34.8983 10.7837C34.8983 13.9495 32.3829 16.4652 29.2175 16.4652C26.0521 16.4652 23.5367 13.9495 23.5367 10.7837C23.5367 7.61795 26.0521 5.10225 29.2175 5.10225V5.10379ZM9.23906 14.2007L6.40173 15.3561L7.5077 18.1444C6.03546 19.0256 4.79702 20.2483 3.8971 21.7092L1.15527 20.6L0 23.4423L2.74184 24.5484C2.52544 25.3818 2.41266 26.2386 2.40604 27.0996C2.40604 27.9777 2.53697 28.8342 2.74184 29.6507L0 30.7599L1.15527 33.5991L3.8971 32.4899C4.78882 33.9699 6.0282 35.21 7.5077 36.1024L6.39864 38.8446L9.2406 40L10.3497 37.2578C11.1828 37.4748 12.0396 37.5876 12.9005 37.5937C13.7785 37.5937 14.638 37.4627 15.4513 37.2578L16.5604 40L19.3993 38.8446L18.2902 36.1024C19.752 35.2037 20.9749 33.9648 21.8546 32.4914L24.6426 33.5975L25.7979 30.7583L23.0099 29.6491C23.2101 28.8327 23.3457 27.9746 23.3457 27.098C23.3457 26.2199 23.2116 25.3603 23.0068 24.5454L25.7994 23.4392L24.6442 20.597L21.8561 21.7061C20.9714 20.2489 19.7488 19.0262 18.2917 18.1413L19.4008 15.353L16.5588 14.1976L15.4544 16.9859C14.6204 16.7709 13.7633 16.6586 12.902 16.6516C12.024 16.6516 11.1676 16.7841 10.3512 16.9875L9.24214 14.1991L9.23906 14.2007ZM12.899 19.7343C17.0009 19.7343 20.2619 23.0002 20.2619 27.1011C20.2649 31.2035 17.0009 34.5142 12.899 34.5142C11.9252 34.5154 10.9608 34.3245 10.061 33.9523C9.16115 33.5802 8.34355 33.0342 7.65502 32.3456C6.96649 31.657 6.42056 30.8393 6.0485 29.9394C5.67643 29.0394 5.48554 28.0749 5.48675 27.1011C5.48675 22.9987 8.79852 19.7343 12.899 19.7343Z" fill="#9747FF"/>
</svg>
